<?xml version="1.0" encoding="utf-8"?>
<!-- Generator: Adobe Illustrator 19.0.0, SVG Export Plug-In . SVG Version: 6.00 Build 0)  -->
<svg version="1.1" id="Layer_1" xmlns="http://www.w3.org/2000/svg" xmlns:xlink="http://www.w3.org/1999/xlink" x="0px" y="0px"
	 viewBox="0 0 363.6 348.2" style="enable-background:new 0 0 363.6 348.2;" xml:space="preserve">
<style type="text/css">
	.st0{fill:none;stroke:#FFD93A;stroke-miterlimit:10;}
	.st1{fill:none;stroke:#FBE90C;stroke-miterlimit:10;}
	.st2{fill:#FFD93A;}
	.st3{fill:#EB8540;}
</style>
<g id="XMLID_34_">
	<path id="XMLID_4_" class="st0" d="M47.5,85.3l-19.9,5.3"/>
	<path id="XMLID_8_" class="st0" d="M22.4,82.5l12.4-14.9"/>
	<path id="XMLID_6_" class="st1" d="M22.3,83.5"/>
	<path id="XMLID_1_" class="st1" d="M27.1,90.8"/>
	<path id="XMLID_106_" class="st0" d="M27.6,90.6l-5.3-8.1l-8.6,10.8c-0.2,0.3,0.1,0.7,0.4,0.6L27.6,90.6z"/>
	<path id="XMLID_5_" class="st0" d="M129.8,13.4c0.7,0.8,1.7,2.4,2.4,3.3c0.6,1,1.7,2.6,2.2,3.7L44,79.3c-1.5,1-3.9,0-5-1.6
		c-1.1-1.6-1-4.3,0.5-5.3"/>
	<path id="XMLID_3_" class="st2" d="M44.1,79.4l0.2,0.4l90.1-59l-0.2-0.4l-0.4,0.2c1.2,2.1,2.1,4.3,3,6.4l0.4-0.2l-0.2-0.4
		L47.6,84.5l0,0c-0.6,0.4-1.2,0.5-1.9,0.4c-0.8-0.1-1.5-0.6-2-1.3c-0.5-0.7-0.6-1.4-0.5-2.1s0.5-1.3,1.2-1.8l0,0L44.1,79.4l-0.2-0.4
		c-0.9,0.6-1.5,1.5-1.6,2.5c-0.2,1,0.1,1.9,0.6,2.8c0.6,1,1.7,1.6,2.6,1.8c0.9,0.1,1.8,0,2.6-0.6L137.9,27l-0.1-0.4
		c-0.9-2.2-1.8-4.4-3-6.6l-0.2-0.4L44,78.8l0,0L44.1,79.4z"/>
	<path id="XMLID_7_" class="st2" d="M39.3,72.3l0.2,0.4l90.8-59.4l-0.3-0.5c-1.5-2-3-3.7-4.8-5.3L125,7.3l-89.6,59
		c-0.9,0.6-1.5,1.5-1.6,2.5c-0.1,0.9,0,1.9,0.6,2.8l0.4-0.2l-0.4,0.1c0.5,1,1.6,1.6,2.6,1.7c0.9,0.1,1.8,0,2.6-0.6L39.3,72.3
		l-0.2-0.4c-0.6,0.4-1.2,0.5-1.9,0.4c-0.8-0.1-1.4-0.5-1.9-1.3l0,0l0,0c-0.4-0.7-0.6-1.4-0.5-2.1c0.1-0.8,0.5-1.4,1.2-1.8l89.3-58.7
		l-0.2-0.4l-0.4,0.3c1.7,1.6,3.2,3.4,4.6,5.3l0.4-0.3l-0.2-0.4L39.1,71.8L39.3,72.3z"/>
	<path id="XMLID_105_" class="st3" d="M12.3,97.9L12.3,97.9c0.2,0.1,0.3,0.1,0.4,0.1L12.3,97.9z"/>
</g>
<g id="XMLID_35_">
	<path id="XMLID_44_" class="st0" d="M277.8,249.5l-4.6-20"/>
	<path id="XMLID_43_" class="st0" d="M281.4,224.4l14.5,12.8"/>
	<path id="XMLID_42_" class="st1" d="M280.4,224.3"/>
	<path id="XMLID_40_" class="st1" d="M273,228.9"/>
	<path id="XMLID_41_" class="st0" d="M273.2,229.4l8.2-5l-10.5-8.9c-0.3-0.3-0.7,0.1-0.6,0.4L273.2,229.4z"/>
	<path id="XMLID_39_" class="st0" d="M347.1,334c-0.8,0.6-2.5,1.7-3.4,2.3c-1,0.6-2.7,1.6-3.8,2.1l-56-92.3
		c-0.9-1.5,0.2-3.9,1.8-4.9c1.6-1,4.4-0.9,5.3,0.6"/>
	<path id="XMLID_38_" class="st2" d="M283.8,246.2l-0.5,0.2l56.1,92l0.5-0.2l-0.2-0.4c-2.2,1.1-4.4,2-6.5,2.8l0.2,0.4l0.5-0.2
		l-55.3-91.2l0,0c-0.4-0.6-0.5-1.2-0.3-1.9c0.2-0.8,0.6-1.5,1.4-2c0.7-0.5,1.4-0.5,2.1-0.4c0.7,0.1,1.3,0.6,1.8,1.3l0,0L283.8,246.2
		l0.5-0.2c-0.5-0.9-1.4-1.5-2.4-1.7c-1-0.2-1.9,0-2.9,0.6c-1,0.6-1.6,1.6-1.8,2.6c-0.2,0.9-0.1,1.8,0.5,2.6l55.6,91.5l0.4-0.1
		c2.2-0.8,4.4-1.7,6.7-2.8l0.5-0.2l-56.4-92.4l0,0L283.8,246.2z"/>
	<path id="XMLID_36_" class="st2" d="M291,241.7l-0.5,0.2l56.5,92.6l0.5-0.3c2-1.4,3.8-2.9,5.5-4.6l0.3-0.3l-56.1-91.5
		c-0.5-0.9-1.4-1.5-2.4-1.7c-0.9-0.2-1.9-0.1-2.9,0.6l0.2,0.5l-0.1-0.4c-1,0.5-1.6,1.5-1.8,2.5c-0.2,0.9-0.1,1.8,0.5,2.6L291,241.7
		l0.5-0.2c-0.4-0.6-0.5-1.2-0.3-1.9c0.2-0.8,0.6-1.4,1.4-1.9l0,0l0,0c0.7-0.4,1.4-0.5,2.1-0.4c0.8,0.2,1.4,0.6,1.8,1.3l55.9,91.1
		l0.5-0.2l-0.3-0.4c-1.6,1.6-3.5,3.1-5.5,4.4l0.3,0.4l0.5-0.2l-56.2-92.2L291,241.7z"/>
	<path id="XMLID_37_" class="st3" d="M266.3,213.9L266.3,213.9c-0.1,0.2-0.2,0.3-0.1,0.4L266.3,213.9z"/>
</g>
<g id="XMLID_45_">
	<path id="XMLID_54_" class="st0" d="M116.5,243.9l20.5-1.3"/>
	<path id="XMLID_53_" class="st0" d="M140.6,251.6l-15.1,12.2"/>
	<path id="XMLID_52_" class="st1" d="M140.9,250.6"/>
	<path id="XMLID_51_" class="st1" d="M137.6,242.5"/>
	<path id="XMLID_50_" class="st0" d="M137,242.6l3.6,8.9l10.5-8.9c0.3-0.2,0.1-0.7-0.3-0.6L137,242.6z"/>
	<path id="XMLID_49_" class="st0" d="M21.8,298.5c-0.5-0.9-1.2-2.7-1.7-3.7c-0.4-1.1-1.2-2.9-1.5-4.1l100.2-40.2
		c1.6-0.7,3.9,0.8,4.6,2.6c0.7,1.8,0.2,4.4-1.5,5.1"/>
	<path id="XMLID_48_" class="st2" d="M118.7,250.4l-0.1-0.5l-99.9,40.3l0.1,0.5l0.5-0.1c-0.7-2.3-1.2-4.6-1.7-6.8l-0.5,0.1l0.1,0.5
		l99-39.7l0,0c0.6-0.3,1.3-0.3,1.9,0c0.7,0.3,1.4,0.8,1.7,1.7c0.3,0.8,0.3,1.5,0,2.2s-0.8,1.2-1.5,1.6l0,0L118.7,250.4l0.1,0.5
		c1-0.4,1.7-1.2,2.1-2.1s0.3-1.9-0.1-2.9c-0.4-1.1-1.3-1.9-2.2-2.2c-0.8-0.3-1.8-0.3-2.7,0.1l-99.4,39.9l0,0.4
		c0.4,2.3,0.9,4.6,1.6,7l0.1,0.5l100.4-40.5l0,0L118.7,250.4z"/>
	<path id="XMLID_47_" class="st2" d="M122,258.2l-0.1-0.5L21.2,298.3l0.2,0.5c1.1,2.2,2.2,4.3,3.7,6.2l0.2,0.3l99.4-40.4
		c1-0.4,1.7-1.2,2.1-2.1c0.3-0.8,0.4-1.9-0.1-2.9l-0.5,0.1l0.4,0c-0.3-1.1-1.2-1.8-2.2-2.2c-0.8-0.3-1.8-0.4-2.7,0.1L122,258.2
		l0.1,0.5c0.6-0.3,1.3-0.3,1.9,0c0.7,0.3,1.3,0.8,1.6,1.7l0,0l0,0c0.3,0.7,0.3,1.5,0,2.2c-0.3,0.7-0.8,1.3-1.5,1.6l-99,40.2l0.1,0.5
		l0.4-0.3c-1.3-1.9-2.5-3.9-3.5-6.1l-0.4,0.3l0.1,0.5l100.1-40.3L122,258.2z"/>
	<path id="XMLID_46_" class="st3" d="M153.4,238.4L153.4,238.4c-0.2-0.2-0.2-0.2-0.4-0.1L153.4,238.4z"/>
</g>
<g id="XMLID_55_">
	<path id="XMLID_64_" class="st0" d="M311.3,11l20.5-1.8"/>
	<path id="XMLID_63_" class="st0" d="M335.6,18.1l-14.8,12.6"/>
	<path id="XMLID_62_" class="st1" d="M335.8,17.1"/>
	<path id="XMLID_61_" class="st1" d="M332.3,9.1"/>
	<path id="XMLID_60_" class="st0" d="M331.8,9.2l3.8,8.8L345.8,9c0.3-0.2,0-0.7-0.3-0.6L331.8,9.2z"/>
	<path id="XMLID_59_" class="st0" d="M217.8,67.5c-0.5-0.9-1.3-2.7-1.8-3.7c-0.5-1.1-1.2-2.9-1.6-4l99.3-42.4
		c1.6-0.7,3.9,0.7,4.6,2.5c0.8,1.8,0.2,4.4-1.4,5.1"/>
	<path id="XMLID_58_" class="st2" d="M313.6,17.4l-0.1-0.5l-99,42.5l0.1,0.5l0.5-0.2c-0.8-2.3-1.3-4.6-1.8-6.8l-0.5,0.2l0.1,0.5
		l98.1-41.8l0,0c0.6-0.3,1.3-0.3,1.9-0.1c0.8,0.3,1.4,0.8,1.7,1.7c0.4,0.8,0.3,1.5,0.1,2.2c-0.2,0.7-0.7,1.2-1.5,1.6l0,0L313.6,17.4
		l0.1,0.5c1-0.4,1.7-1.2,2-2.2c0.3-0.9,0.3-1.9-0.1-2.9c-0.5-1.1-1.4-1.9-2.3-2.2c-0.8-0.3-1.8-0.3-2.7,0.1l-98.5,42l0.1,0.4
		c0.5,2.3,1,4.6,1.8,7l0.1,0.5l99.5-42.7l0,0L313.6,17.4z"/>
	<path id="XMLID_57_" class="st2" d="M317.1,25.1l-0.2-0.5l-99.7,42.7l0.2,0.5c1.1,2.2,2.3,4.2,3.8,6.1l0.2,0.3L320,31.8
		c1-0.4,1.7-1.2,2-2.2c0.3-0.8,0.3-1.9-0.1-2.9l-0.5,0.2l0.4-0.1c-0.4-1.1-1.3-1.8-2.2-2.2c-0.8-0.3-1.8-0.3-2.7,0.1L317.1,25.1
		l0.2,0.5c0.6-0.3,1.3-0.3,1.9-0.1c0.8,0.3,1.3,0.8,1.7,1.6l0,0l0,0c0.3,0.7,0.3,1.5,0.1,2.2c-0.3,0.8-0.8,1.3-1.5,1.6l-98.1,42.4
		l0.2,0.5l0.4-0.3c-1.4-1.9-2.6-3.9-3.6-6l-0.4,0.3l0.2,0.5l99.2-42.5L317.1,25.1z"/>
	<path id="XMLID_56_" class="st3" d="M348.1,4.7L348.1,4.7c-0.2-0.2-0.3-0.2-0.4-0.1L348.1,4.7z"/>
</g>
<g id="XMLID_65_">
	<path id="XMLID_74_" class="st0" d="M204,181.2l-0.1,20.6"/>
	<path id="XMLID_73_" class="st0" d="M194.8,204.8l-11.2-15.8"/>
	<path id="XMLID_72_" class="st1" d="M195.8,205.1"/>
	<path id="XMLID_71_" class="st1" d="M204,202.3"/>
	<path id="XMLID_70_" class="st0" d="M204,201.8l-9.2,3l8.2,11.1c0.2,0.3,0.7,0.1,0.7-0.2L204,201.8z"/>
	<path id="XMLID_69_" class="st0" d="M156,83.1c1-0.4,2.8-1,3.8-1.4c1.2-0.4,3-1,4.2-1.2l33.4,102.7c0.6,1.7-1.1,3.8-2.9,4.4
		c-1.8,0.6-4.4-0.1-5-1.8"/>
	<path id="XMLID_68_" class="st2" d="M197.5,183l0.5-0.1L164.4,80.5l-0.5,0.1l0.1,0.5c2.3-0.6,4.7-0.9,6.9-1.2l-0.1-0.5l-0.5,0.1
		l32.9,101.5l0,0c0.2,0.7,0.2,1.3-0.1,1.9c-0.3,0.7-0.9,1.3-1.8,1.6c-0.8,0.3-1.5,0.2-2.2-0.1c-0.6-0.3-1.2-0.9-1.5-1.6l0,0
		L197.5,183l-0.5,0.1c0.3,1,1.1,1.8,2,2.2s1.9,0.4,2.9,0.1c1.1-0.4,2-1.2,2.4-2.1c0.4-0.8,0.5-1.8,0.1-2.7L171.3,78.8l-0.4,0
		c-2.3,0.3-4.7,0.6-7.1,1.2l-0.5,0.1l33.7,102.9l0,0L197.5,183z"/>
	<path id="XMLID_67_" class="st2" d="M189.4,185.7l0.5-0.1L156.2,82.5l-0.5,0.2c-2.3,0.9-4.4,2-6.4,3.2l-0.3,0.2L182.6,188
		c0.3,1,1.1,1.8,2,2.2c0.8,0.4,1.9,0.5,2.9,0.1l-0.1-0.5l0,0.4c1.1-0.3,1.9-1.1,2.3-2c0.4-0.8,0.5-1.8,0.1-2.7L189.4,185.7l-0.5,0.1
		c0.2,0.7,0.2,1.3-0.1,1.9c-0.3,0.7-0.9,1.2-1.8,1.5l0,0l0,0c-0.8,0.2-1.5,0.2-2.2-0.1c-0.7-0.3-1.2-0.9-1.4-1.6L150,86l-0.5,0.1
		l0.2,0.4c2-1.2,4.1-2.2,6.3-3.1l-0.2-0.4l-0.5,0.1l33.5,102.6L189.4,185.7z"/>
	<path id="XMLID_66_" class="st3" d="M207.1,218.4L207.1,218.4c0.2-0.1,0.2-0.2,0.2-0.4L207.1,218.4z"/>
</g>
<g id="XMLID_75_">
	<path id="XMLID_84_" class="st0" d="M80.7,124.5l14.8-14.3"/>
	<path id="XMLID_83_" class="st0" d="M104.1,114.7l-3.5,19.1"/>
	<path id="XMLID_82_" class="st1" d="M103.6,113.8"/>
	<path id="XMLID_81_" class="st1" d="M95.9,109.8"/>
	<path id="XMLID_80_" class="st0" d="M95.5,110.2l8.5,4.5l2.2-13.6c0.1-0.4-0.4-0.6-0.6-0.3L95.5,110.2z"/>
	<path id="XMLID_79_" class="st0" d="M44,227.4c-1-0.4-2.7-1.3-3.7-1.7c-1.1-0.6-2.8-1.4-3.8-2.2L86.7,128c0.8-1.6,3.5-1.9,5.2-1
		c1.7,0.9,3,3.3,2.2,4.8"/>
	<path id="XMLID_78_" class="st2" d="M86.6,128l-0.4-0.3l-49.9,95.4l0.4,0.3L37,223c-2.1-1.3-3.9-2.7-5.7-4.1l-0.3,0.4l0.4,0.3
		l49.7-94.4l0,0c0.3-0.6,0.8-1,1.4-1.3c0.7-0.3,1.6-0.3,2.4,0.2c0.8,0.4,1.2,1,1.4,1.6c0.2,0.7,0.2,1.4-0.2,2.2l0,0L86.6,128
		l0.4,0.3c0.5-0.9,0.5-2,0.2-2.9s-1-1.7-1.9-2.2c-1.1-0.6-2.2-0.6-3.2-0.2c-0.8,0.3-1.6,0.9-2,1.8l-49.9,94.8l0.3,0.3
		c1.8,1.5,3.7,2.9,5.8,4.3l0.4,0.3l50.2-96l0,0L86.6,128z"/>
	<path id="XMLID_77_" class="st2" d="M94.2,131.8l-0.4-0.3l-50.3,96.1l0.5,0.2c2.3,1,4.5,1.8,6.8,2.3l0.4,0.1l49.5-95.2
		c0.5-0.9,0.6-2,0.2-2.9c-0.3-0.8-0.9-1.7-2-2.2l-0.3,0.4l0.3-0.3c-1-0.6-2.1-0.6-3.1-0.3c-0.8,0.3-1.6,0.9-2,1.8L94.2,131.8
		l0.4,0.3c0.3-0.6,0.8-1,1.5-1.3c0.8-0.3,1.5-0.2,2.3,0.2l0,0l0,0c0.7,0.4,1.2,1,1.4,1.6c0.3,0.8,0.2,1.5-0.2,2.2l-49.3,94.8
		l0.4,0.3l0.1-0.5c-2.2-0.6-4.4-1.4-6.6-2.4l-0.1,0.5l0.4,0.3l50.1-95.6L94.2,131.8z"/>
	<path id="XMLID_76_" class="st3" d="M105.3,96.4L105.3,96.4c-0.2,0-0.3,0-0.4,0.1L105.3,96.4z"/>
</g>
<g id="XMLID_85_">
	<path id="XMLID_94_" class="st0" d="M156.4,337l-20.3,3"/>
	<path id="XMLID_93_" class="st0" d="M131.7,331.5l14-13.5"/>
	<path id="XMLID_92_" class="st1" d="M131.6,332.5"/>
	<path id="XMLID_91_" class="st1" d="M135.5,340.2"/>
	<path id="XMLID_90_" class="st0" d="M136.1,340.1l-4.3-8.6l-9.7,9.7c-0.3,0.2,0,0.7,0.3,0.6L136.1,340.1z"/>
	<path id="XMLID_89_" class="st0" d="M246.1,274.7c0.6,0.9,1.5,2.6,2,3.6c0.5,1.1,1.4,2.8,1.8,3.9l-96.4,48.6
		c-1.6,0.8-3.9-0.5-4.8-2.2c-0.9-1.7-0.5-4.4,1-5.2"/>
	<path id="XMLID_88_" class="st2" d="M153.7,330.8l0.2,0.5l96.1-48.7l-0.2-0.5l-0.5,0.2c0.9,2.2,1.6,4.5,2.3,6.7l0.5-0.2l-0.2-0.5
		l-95.3,48l0,0c-0.6,0.3-1.2,0.4-1.9,0.2c-0.8-0.2-1.5-0.7-1.8-1.6c-0.4-0.7-0.4-1.5-0.2-2.1s0.7-1.3,1.4-1.7l0,0L153.7,330.8
		l-0.2-0.5c-1,0.5-1.6,1.3-1.9,2.3s-0.1,1.9,0.3,2.9c0.5,1.1,1.5,1.8,2.4,2c0.9,0.2,1.8,0.2,2.7-0.3l95.6-48.2l-0.1-0.4
		c-0.6-2.2-1.3-4.5-2.2-6.9l-0.2-0.5l-96.6,48.9l0,0L153.7,330.8z"/>
	<path id="XMLID_87_" class="st2" d="M149.7,323.3l0.2,0.5l96.8-49l-0.3-0.5c-1.3-2.1-2.6-4.1-4.2-5.8l-0.2-0.3l-95.6,48.7
		c-1,0.5-1.6,1.3-1.9,2.3c-0.2,0.9-0.2,1.9,0.3,2.9l0.5-0.2l-0.4,0.1c0.4,1.1,1.4,1.7,2.3,2c0.9,0.2,1.8,0.2,2.7-0.3L149.7,323.3
		l-0.2-0.5c-0.6,0.3-1.2,0.4-1.9,0.2c-0.8-0.2-1.4-0.7-1.8-1.5l0,0l0,0c-0.3-0.7-0.4-1.5-0.2-2.1c0.2-0.8,0.7-1.4,1.4-1.7l95.2-48.5
		l-0.2-0.5l-0.4,0.3c1.5,1.8,2.8,3.7,4,5.8l0.4-0.3l-0.2-0.5l-96.3,48.7L149.7,323.3z"/>
	<path id="XMLID_86_" class="st3" d="M120.1,345.7L120.1,345.7c0.2,0.2,0.3,0.2,0.4,0.1L120.1,345.7z"/>
</g>
<g id="XMLID_95_">
	<path id="XMLID_104_" class="st0" d="M280.7,163.3l-18.8,8.4"/>
	<path id="XMLID_103_" class="st0" d="M255.4,164.7l9.8-16.7"/>
	<path id="XMLID_102_" class="st1" d="M255.5,165.7"/>
	<path id="XMLID_101_" class="st1" d="M261.4,172.1"/>
	<path id="XMLID_100_" class="st0" d="M261.9,171.8l-6.5-7.1l-6.7,12c-0.2,0.3,0.2,0.7,0.5,0.5L261.9,171.8z"/>
	<path id="XMLID_99_" class="st0" d="M350.2,79.1c0.8,0.7,2.1,2.1,2.9,2.9c0.8,0.9,2.1,2.3,2.8,3.3l-79.7,72.8
		c-1.3,1.2-3.9,0.6-5.2-0.8c-1.3-1.4-1.7-4.1-0.4-5.3"/>
	<path id="XMLID_98_" class="st2" d="M276.4,158.1l0.3,0.4l79.4-72.8l-0.3-0.4l-0.4,0.3c1.5,1.9,2.8,3.9,4,5.8l0.4-0.3l-0.3-0.4
		l-78.8,71.9l0,0c-0.5,0.5-1.1,0.7-1.8,0.7c-0.8,0-1.6-0.3-2.2-1c-0.6-0.6-0.8-1.3-0.8-2s0.3-1.4,0.9-2l0,0L276.4,158.1l-0.3-0.4
		c-0.8,0.7-1.2,1.7-1.2,2.7s0.4,1.9,1.1,2.7c0.8,0.9,1.9,1.3,2.9,1.3c0.9,0,1.8-0.3,2.5-1l79.1-72.2l-0.2-0.4c-1.2-2-2.5-4-4-6
		l-0.3-0.4l-79.8,73.2l0,0L276.4,158.1z"/>
	<path id="XMLID_97_" class="st2" d="M270.5,151.9l0.3,0.4l80-73.3l-0.4-0.4c-1.8-1.7-3.6-3.2-5.6-4.5l-0.3-0.2l-78.9,72.7
		c-0.8,0.7-1.2,1.7-1.2,2.7c0,0.9,0.3,1.9,1.1,2.7l0.4-0.3l-0.4,0.2c0.7,0.9,1.8,1.3,2.8,1.3c0.9,0,1.8-0.3,2.5-1L270.5,151.9
		l-0.3-0.4c-0.5,0.5-1.1,0.7-1.8,0.7c-0.8,0-1.5-0.3-2.1-1l0,0l0,0c-0.5-0.6-0.8-1.3-0.8-2c0-0.8,0.3-1.5,0.9-2L345,74.8l-0.3-0.4
		l-0.3,0.4c1.9,1.3,3.7,2.8,5.4,4.5l0.3-0.4l-0.3-0.4l-79.6,72.9L270.5,151.9z"/>
	<path id="XMLID_96_" class="st3" d="M248,181.5L248,181.5c0.2,0.1,0.3,0.1,0.4,0H248z"/>
</g>
</svg>
